<?xml version="1.0" encoding="UTF-8"?>
<svg xmlns="http://www.w3.org/2000/svg" version="1.1" xmlns:xlink="http://www.w3.org/1999/xlink" viewBox="0 0 780 546">
  <defs>
    <style>
      .cls-1 {
        fill: url(#linear-gradient);
        opacity: .1;
      }

      .cls-1, .cls-2 {
        isolation: isolate;
      }

      .cls-2 {
        opacity: .2;
      }

      .cls-2, .cls-3, .cls-4, .cls-5, .cls-6, .cls-7, .cls-8, .cls-9 {
        fill: none;
      }

      .cls-2, .cls-4, .cls-5, .cls-6, .cls-7 {
        stroke-width: 2px;
      }

      .cls-2, .cls-5, .cls-7, .cls-8 {
        stroke: #3751ff;
      }

      .cls-10 {
        mask: url(#mask-1);
      }

      .cls-11, .cls-12 {
        fill: #fff;
      }

      .cls-13 {
        mask: url(#mask);
      }

      .cls-12, .cls-14 {
        fill-rule: evenodd;
      }

      .cls-4, .cls-6 {
        stroke: #dfe0eb;
      }

      .cls-4, .cls-7 {
        stroke-linecap: round;
      }

      .cls-15 {
        clip-path: url(#clippath-1);
      }

      .cls-16 {
        fill: #c4c4c4;
      }

      .cls-5, .cls-6 {
        stroke-linejoin: round;
      }

      .cls-17 {
        fill: #dfe0eb;
      }

      .cls-18 {
        fill: #252733;
      }

      .cls-19 {
        clip-path: url(#clippath-2);
      }

      .cls-8 {
        stroke-width: 4px;
      }

      .cls-20 {
        clip-path: url(#clippath);
      }

      .cls-9 {
        stroke: #ebedf0;
      }

      .cls-21 {
        fill: #9fa2b4;
      }
    </style>
    <clipPath id="clippath">
      <rect class="cls-3" width="780" height="546"/>
    </clipPath>
    <clipPath id="clippath-1">
      <rect class="cls-3" x="32" y="134" width="686" height="380"/>
    </clipPath>
    <clipPath id="clippath-2">
      <rect class="cls-3" x="32" y="501" width="716" height="13"/>
    </clipPath>
    <mask id="mask" x="21.9" y="153" width="627.6" height="381.5" maskUnits="userSpaceOnUse">
      <g id="mask0_29_2">
        <rect class="cls-16" x="32" y="153" width="576" height="336"/>
      </g>
    </mask>
    <linearGradient id="linear-gradient" x1="31.6" y1="178.5" x2="608.1" y2="178.1" gradientTransform="translate(0 548) scale(1 -1)" gradientUnits="userSpaceOnUse">
      <stop offset="0" stop-color="#3751ff"/>
      <stop offset="1" stop-color="#3751ff" stop-opacity="0"/>
    </linearGradient>
    <mask id="mask-1" x="413" y="206" width="66" height="38" maskUnits="userSpaceOnUse">
      <g id="path-53-outside-1_29_2">
        <rect class="cls-11" x="413" y="206" width="66" height="38"/>
        <path class="cls-14" d="M418,207h56c2.2,0,4,1.8,4,4v22c0,2.2-1.8,4-4,4h-21l-6.7,5.8c-.1.1-.4.1-.5,0l-6.7-5.8h-21c-2.2,0-4-1.8-4-4v-22c0-2.2,1.8-4,4-4Z"/>
      </g>
    </mask>
  </defs>
  <!-- Generator: Adobe Illustrator 28.6.0, SVG Export Plug-In . SVG Version: 1.2.0 Build 709)  -->
  <g>
    <g id="Layer_1">
      <g class="cls-20">
        <g>
          <path class="cls-18" d="M36.6,39.5h-4.4v-2h11.3v2h-4.4v11.5h-2.5v-11.5ZM48.3,51.2c-1,0-1.8-.2-2.6-.6-.7-.4-1.3-1-1.7-1.7-.4-.8-.6-1.6-.6-2.7s.2-1.9.6-2.6c.4-.8,1-1.3,1.7-1.7.7-.4,1.6-.6,2.6-.6s1.8.2,2.5.6c.7.4,1.3,1,1.7,1.7.4.7.6,1.6.6,2.6s-.2,1.9-.6,2.7c-.4.7-1,1.3-1.7,1.7-.7.4-1.6.6-2.5.6ZM48.3,49.3c.8,0,1.4-.3,1.8-.8.4-.5.6-1.3.6-2.4s-.2-1.8-.6-2.3c-.4-.5-1-.8-1.8-.8s-1.4.3-1.8.8c-.4.5-.6,1.3-.6,2.3s.2,1.8.6,2.4c.4.5,1,.8,1.8.8ZM64.8,37v14h-2.3v-1.5c-.3.5-.7,1-1.3,1.3-.5.3-1.2.4-1.9.4s-1.6-.2-2.2-.6c-.6-.4-1.2-1-1.5-1.8-.4-.8-.5-1.7-.5-2.6s.2-1.9.5-2.6c.4-.7.9-1.3,1.5-1.7.6-.4,1.4-.6,2.2-.6s1.3.1,1.8.4c.5.3,1,.7,1.3,1.2v-5.8h2.4ZM59.9,49.3c.8,0,1.4-.3,1.8-.8.4-.5.7-1.3.7-2.3s-.2-1.8-.6-2.3c-.4-.5-1-.8-1.8-.8s-1.4.3-1.9.8c-.4.5-.6,1.3-.6,2.3s.2,1.8.6,2.3c.4.6,1.1.8,1.8.8ZM76.9,41.4v9.6h-2.3v-1.5c-.3.5-.7,1-1.3,1.3-.5.3-1.2.4-1.9.4s-1.6-.2-2.2-.6c-.6-.4-1.1-1-1.5-1.7-.4-.7-.5-1.6-.5-2.6s.2-1.9.5-2.6c.4-.8.9-1.4,1.5-1.8.6-.4,1.4-.6,2.2-.6s1.3.2,1.9.5c.5.3,1,.7,1.3,1.2v-1.4h2.3ZM72.1,49.3c.8,0,1.4-.3,1.8-.8.4-.5.6-1.3.6-2.3s-.2-1.8-.6-2.3c-.4-.5-1-.8-1.8-.8s-1.4.3-1.8.9c-.4.6-.6,1.3-.6,2.3s.2,1.7.6,2.3c.4.5,1.1.8,1.9.8ZM89,41.4l-4.5,10.2c-.5,1.2-1.2,2.1-1.9,2.6-.8.5-1.8.9-2.9,1.1l-.5-1.8c.9-.2,1.6-.5,2-.8.5-.3.8-.8,1.1-1.4l.3-.7-4-9.3h2.5l2.8,6.9,2.8-6.9h2.4ZM93.2,37.5v1.7c0,.7-.1,1.3-.3,1.8-.2.5-.6,1.1-1.2,1.6l-1-.8c.6-.6.9-1.2,1-1.8h-1.2v-2.7h2.7ZM98.9,51.2c-1.7,0-3.1-.4-4.1-1.2l.7-1.7c1,.8,2.2,1.1,3.5,1.1s1,0,1.3-.3c.3-.2.5-.5.5-.8s-.1-.5-.3-.7c-.2-.2-.6-.3-1.1-.5l-1.6-.4c-1.7-.4-2.6-1.3-2.6-2.7s.2-1.1.5-1.5c.3-.5.8-.8,1.4-1.1.6-.3,1.3-.4,2.1-.4s1.3.1,2,.3c.6.2,1.2.5,1.7.9l-.7,1.6c-1-.7-2-1.1-3-1.1s-1,.1-1.3.3-.5.5-.5.8,0,.5.3.7c.2.2.5.3.9.4l1.6.4c1,.2,1.6.6,2.1,1,.4.4.7,1,.7,1.7s-.4,1.6-1.1,2.1c-.7.5-1.7.8-2.9.8ZM114,43.2v4.3c0,1.1.5,1.7,1.6,1.7s.6,0,.9-.2v1.9c-.4.2-.9.2-1.5.2-1.1,0-1.9-.3-2.5-.9-.6-.6-.9-1.5-.9-2.6v-4.4h-1.8v-1.8h1.8v-2.3l2.4-.8v3.1h2.5v1.8h-2.5ZM123.7,41.2c.4,0,.7,0,.9.2v2.2c-.4-.2-.8-.2-1.3-.2-.8,0-1.4.2-1.9.7-.4.5-.6,1.1-.6,1.9v5.2h-2.4v-6.9c0-1,0-1.9-.2-2.7h2.2l.2,1.7c.2-.6.6-1.1,1.1-1.4.5-.3,1.1-.5,1.8-.5ZM134.6,46.3h-6.6c0,1,.3,1.8.8,2.3.5.5,1.2.7,2.1.7s2-.3,2.9-1l.7,1.6c-.5.4-1,.7-1.7.9-.7.2-1.3.3-2,.3-1.6,0-2.8-.4-3.7-1.3-.9-.9-1.3-2.1-1.3-3.6s.2-1.8.6-2.6c.4-.8.9-1.3,1.7-1.8.7-.4,1.5-.6,2.4-.6,1.3,0,2.4.4,3.1,1.3.8.8,1.2,2,1.2,3.5v.4ZM130.4,42.9c-.6,0-1.2.2-1.6.6-.4.4-.6.9-.8,1.6h4.5c0-.7-.3-1.3-.7-1.6-.4-.4-.8-.6-1.5-.6ZM142.5,41.2c2.3,0,3.4,1.3,3.4,4v5.9h-2.4v-5.8c0-.8-.1-1.3-.4-1.7-.3-.4-.7-.5-1.3-.5s-1.3.2-1.7.7c-.4.5-.7,1.1-.7,1.8v5.4h-2.4v-6.9c0-1,0-1.9-.2-2.7h2.2l.2,1.6c.3-.6.8-1,1.3-1.3.6-.3,1.2-.5,1.9-.5ZM158,37v14h-2.3v-1.5c-.3.5-.7,1-1.3,1.3-.5.3-1.2.4-1.9.4s-1.6-.2-2.2-.6c-.6-.4-1.2-1-1.5-1.8-.4-.8-.5-1.7-.5-2.6s.2-1.9.5-2.6c.4-.7.9-1.3,1.5-1.7.6-.4,1.4-.6,2.2-.6s1.3.1,1.8.4c.5.3,1,.7,1.3,1.2v-5.8h2.4ZM153.2,49.3c.8,0,1.4-.3,1.8-.8.4-.5.7-1.3.7-2.3s-.2-1.8-.6-2.3c-.4-.5-1-.8-1.8-.8s-1.4.3-1.9.8c-.4.5-.6,1.3-.6,2.3s.2,1.8.6,2.3c.4.6,1.1.8,1.8.8ZM164.5,51.2c-1.7,0-3.1-.4-4.1-1.2l.7-1.7c1,.8,2.2,1.1,3.5,1.1s1,0,1.3-.3c.3-.2.5-.5.5-.8s-.1-.5-.3-.7c-.2-.2-.6-.3-1.1-.5l-1.6-.4c-1.7-.4-2.6-1.3-2.6-2.7s.2-1.1.5-1.5c.3-.5.8-.8,1.4-1.1.6-.3,1.3-.4,2.1-.4s1.3.1,2,.3c.6.2,1.2.5,1.7.9l-.7,1.6c-1-.7-2-1.1-3-1.1s-1,.1-1.3.3-.5.5-.5.8,0,.5.3.7c.2.2.5.3,1,.4l1.6.4c1,.2,1.6.6,2.1,1,.4.4.7,1,.7,1.7s-.4,1.6-1.1,2.1c-.7.5-1.7.8-2.9.8Z"/>
          <path class="cls-21" d="M35.3,77.1c-.5,0-1-.1-1.4-.4-.4-.3-.7-.6-.9-1.1-.2-.5-.3-1-.3-1.7s.1-1.2.3-1.7c.2-.5.5-.8.9-1.1.4-.3.9-.4,1.4-.4s1,.1,1.4.4c.4.3.6.7.8,1.2h-.1c0,0,0-1.4,0-1.4h1v6h-1v-1.6h.1c-.1.6-.4,1-.8,1.2-.4.3-.9.4-1.4.4ZM35.4,76.3c.6,0,1-.2,1.4-.6.3-.4.5-1,.5-1.7s-.2-1.3-.5-1.7c-.3-.4-.8-.6-1.4-.6s-1.1.2-1.4.6c-.3.4-.5,1-.5,1.7s.2,1.3.5,1.7c.3.4.8.6,1.4.6ZM42.3,77.1c-1,0-1.8-.3-2.4-.8l.3-.7c.3.2.6.4,1,.6.3.1.7.2,1.1.2s.8,0,1-.2c.2-.2.4-.4.4-.7s0-.4-.2-.6c-.2-.1-.4-.3-.8-.3l-1-.2c-.5-.1-.9-.3-1.2-.6-.3-.3-.4-.6-.4-1s0-.7.3-.9c.2-.3.5-.5.8-.6.3-.2.8-.2,1.2-.2s.8,0,1.2.2.7.3.9.6l-.3.7c-.3-.2-.6-.4-.9-.5-.3-.1-.6-.2-.9-.2s-.8,0-1,.3c-.2.2-.3.4-.3.7s0,.4.2.6c.2.1.4.3.7.3l1,.3c.6.1,1,.3,1.2.6.3.3.4.6.4,1s-.2.9-.6,1.2c-.4.3-1,.5-1.7.5ZM52,77.1c-.6,0-1.1-.1-1.5-.4-.4-.3-.8-.6-1-1.1-.2-.5-.3-1-.3-1.7s.1-1.2.3-1.7c.2-.5.6-.8,1-1.1.4-.3.9-.4,1.5-.4s1.1.1,1.5.4c.4.3.8.6,1,1.1.2.5.4,1,.4,1.7s-.1,1.2-.4,1.7c-.2.5-.6.8-1,1.1-.4.3-.9.4-1.5.4ZM52,76.3c.6,0,1-.2,1.4-.6.3-.4.5-1,.5-1.7s-.2-1.3-.5-1.7-.8-.6-1.4-.6-1,.2-1.4.6c-.3.4-.5,1-.5,1.7s.2,1.3.5,1.7c.3.4.8.6,1.4.6ZM55.6,71.7v-.8h3.6v.8h-3.6ZM59.4,69.1c-.2,0-.4,0-.6,0s-.4,0-.5.1c-.2,0-.3.2-.4.4,0,.2-.1.4-.1.7v6.8h-1v-7c0-.6.2-1.1.5-1.4.3-.3.8-.5,1.3-.5s.3,0,.4,0c.1,0,.3,0,.4,0v.8ZM63.9,77v-.7l3-3.3c.4-.4.7-.9.9-1.2s.3-.7.3-1.1-.1-.8-.4-1.1c-.3-.3-.7-.4-1.2-.4s-.8,0-1.2.3c-.4.2-.8.4-1.2.7l-.4-.8c.3-.3.8-.6,1.3-.8.5-.2,1-.3,1.5-.3s1,0,1.3.3c.4.2.7.4.9.8s.3.7.3,1.2-.1,1-.3,1.4c-.2.4-.6,1-1.1,1.5l-2.9,3.1v-.5c0,0,4.7,0,4.7,0v.8h-5.5ZM73.9,77.1c-.5,0-1,0-1.5-.3-.5-.2-.9-.5-1.3-.8l.4-.8c.4.3.8.6,1.2.7.4.2.8.3,1.2.3.6,0,1.1-.2,1.4-.5s.5-.8.5-1.4,0-.7-.2-1c-.2-.3-.4-.5-.6-.7-.3-.2-.6-.2-1-.2s-.8,0-1.1.3c-.3.2-.6.4-.9.7h-.7v-5h5.1v.8h-4.1v3.5h-.3c.2-.4.5-.6.9-.8.4-.2.8-.3,1.2-.3s1,.1,1.4.3c.4.2.7.5.9.9s.3.9.3,1.4-.1,1-.4,1.4c-.2.4-.6.7-1,1s-.9.3-1.5.3ZM81.8,77v-8.5h.8l3.5,7.9h-.5l3.4-7.9h.8v8.5h-.9v-7.2h.4s-3.1,7.2-3.1,7.2h-.7l-3.2-7.2h.4s0,7.2,0,7.2h-.9ZM94.3,77.1c-.5,0-1-.1-1.4-.4-.4-.3-.7-.6-.9-1.1-.2-.5-.3-1-.3-1.7s.1-1.2.3-1.7.5-.8.9-1.1c.4-.3.9-.4,1.4-.4s1,.1,1.4.4c.4.3.6.7.8,1.2h-.1c0,0,0-1.4,0-1.4h1v6h-1v-1.6h.1c-.1.6-.4,1-.8,1.2-.4.3-.9.4-1.4.4ZM94.5,76.3c.6,0,1-.2,1.4-.6.3-.4.5-1,.5-1.7s-.2-1.3-.5-1.7c-.3-.4-.8-.6-1.4-.6s-1.1.2-1.4.6c-.3.4-.5,1-.5,1.7s.2,1.3.5,1.7c.3.4.8.6,1.4.6ZM99,79.7l-.2-.8c.4,0,.7-.2.9-.3.3-.1.5-.3.6-.4.2-.2.3-.4.5-.7l.4-.9.2-.3,2.2-5.3h1l-2.8,6.6c-.2.5-.5.9-.7,1.2-.3.3-.6.5-.9.7-.3.2-.7.3-1.1.3ZM101.2,77.3l-2.7-6.3h1l2.2,5.3-.5,1ZM109,77v-.7l3-3.3c.4-.4.7-.9.9-1.2.2-.4.3-.7.3-1.1s-.1-.8-.4-1.1c-.3-.3-.7-.4-1.2-.4s-.8,0-1.2.3c-.4.2-.8.4-1.2.7l-.4-.8c.3-.3.8-.6,1.3-.8.5-.2,1-.3,1.5-.3s1,0,1.3.3c.4.2.7.4.9.8s.3.7.3,1.2-.1,1-.3,1.4c-.2.4-.6,1-1.1,1.5l-2.9,3.1v-.5c0,0,4.7,0,4.7,0v.8h-5.5ZM118.9,77.1c-1,0-1.7-.4-2.2-1.1-.5-.7-.8-1.8-.8-3.3s.3-2.5.8-3.3c.5-.7,1.2-1.1,2.2-1.1s1.7.4,2.2,1.1c.5.7.8,1.8.8,3.2s-.3,2.5-.8,3.3c-.5.7-1.2,1.1-2.2,1.1ZM118.9,76.3c.7,0,1.2-.3,1.5-.9.3-.6.5-1.5.5-2.7s-.2-2.1-.5-2.7c-.3-.6-.8-.9-1.5-.9s-1.2.3-1.5.9c-.3.6-.5,1.5-.5,2.7s.2,2.1.5,2.7c.3.6.8.9,1.5.9ZM126,76.6v-7.5l.6.3-2.3,1.5v-.9l2.2-1.4h.6v8.1h-1ZM124.1,77v-.8h4.8v.8h-4.8ZM133.2,68.4c1,0,1.8.4,2.4,1.1.6.7.8,1.7.8,3.1s-.1,1.8-.4,2.5c-.3.7-.6,1.2-1.1,1.6-.5.4-1.1.5-1.8.5s-1,0-1.4-.3c-.5-.2-.9-.4-1.2-.8l.4-.8c.4.3.8.6,1.2.8.4.2.7.2,1.1.2.7,0,1.3-.3,1.7-1,.4-.7.6-1.6.6-2.8v-1l.2.3c0,.4-.2.8-.4,1.1-.2.3-.5.5-.9.7-.4.2-.7.2-1.2.2s-1-.1-1.4-.3c-.4-.2-.7-.6-.9-1-.2-.4-.3-.9-.3-1.4s.1-1,.3-1.4c.2-.4.6-.7,1-1,.4-.2.9-.4,1.4-.4ZM133.3,69.2c-.6,0-1,.2-1.3.5-.3.3-.5.8-.5,1.4s.2,1,.5,1.4c.3.3.8.5,1.3.5s.7,0,1-.2c.3-.2.5-.4.7-.7.2-.3.2-.6.2-1s0-.7-.2-1c-.2-.3-.4-.5-.7-.7-.3-.2-.6-.2-1-.2ZM138.5,78.4l-.5-.3c.2-.2.4-.4.4-.6,0-.2.1-.4.1-.6l.3.2h-.9v-1.2h1.2v.9c0,.3,0,.6-.2.9-.1.3-.3.6-.6.8ZM146.9,77.1c-1,0-1.7-.4-2.2-1.1-.5-.7-.8-1.8-.8-3.3s.3-2.5.8-3.3c.5-.7,1.2-1.1,2.2-1.1s1.7.4,2.2,1.1c.5.7.8,1.8.8,3.2s-.3,2.5-.8,3.3c-.5.7-1.2,1.1-2.2,1.1ZM146.9,76.3c.7,0,1.2-.3,1.5-.9.3-.6.5-1.5.5-2.7s-.2-2.1-.5-2.7c-.3-.6-.8-.9-1.5-.9s-1.2.3-1.5.9c-.3.6-.5,1.5-.5,2.7s.2,2.1.5,2.7c.3.6.8.9,1.5.9ZM153.9,68.4c1,0,1.8.4,2.4,1.1.6.7.8,1.7.8,3.1s-.1,1.8-.4,2.5c-.3.7-.6,1.2-1.1,1.6-.5.4-1.1.5-1.8.5s-1,0-1.4-.3c-.5-.2-.9-.4-1.2-.8l.4-.8c.4.3.8.6,1.2.8.4.2.7.2,1.1.2.7,0,1.3-.3,1.7-1,.4-.7.6-1.6.6-2.8v-1l.2.3c0,.4-.2.8-.4,1.1-.2.3-.5.5-.9.7-.4.2-.7.2-1.2.2s-1-.1-1.4-.3c-.4-.2-.7-.6-.9-1-.2-.4-.3-.9-.3-1.4s.1-1,.3-1.4c.2-.4.6-.7,1-1,.4-.2.9-.4,1.4-.4ZM154,69.2c-.6,0-1,.2-1.3.5-.3.3-.5.8-.5,1.4s.2,1,.5,1.4c.3.3.8.5,1.3.5s.7,0,1-.2c.3-.2.5-.4.7-.7.2-.3.2-.6.2-1s0-.7-.2-1c-.2-.3-.4-.5-.7-.7-.3-.2-.6-.2-1-.2ZM158.7,75.8h1.2v1.2h-1.2v-1.2ZM158.7,71.1h1.2v1.2h-1.2v-1.2ZM165.3,77v-7.3h.3l-3.6,5.1v-.5h5.5v.8h-6.2v-.7l4.1-5.9h.8v8.5h-1ZM171.5,76.6v-7.5l.6.3-2.3,1.5v-.9l2.2-1.4h.6v8.1h-1ZM169.6,77v-.8h4.8v.8h-4.8ZM179.6,77v-8.5h3.4c.9,0,1.6.2,2.1.6.5.4.7,1,.7,1.8s-.2,1.3-.7,1.8c-.5.4-1.2.6-2.1.6h-2.4v3.8h-1ZM180.6,72.4h2.3c.6,0,1.1-.1,1.4-.4.3-.3.5-.7.5-1.2s-.2-.9-.5-1.2c-.3-.3-.8-.4-1.4-.4h-2.3v3.2ZM187.6,77v-8.5h.8l3.5,7.9h-.5l3.4-7.9h.8v8.5h-.9v-7.2h.4s-3.1,7.2-3.1,7.2h-.7l-3.2-7.2h.4s0,7.2,0,7.2h-.9Z"/>
          <path class="cls-7" d="M576,72h16"/>
          <path class="cls-21" d="M603,68.5h-2.9v-1h7v1h-2.9v7.5h-1.2v-7.5ZM610,76.1c-.6,0-1.1-.1-1.6-.4-.4-.3-.8-.6-1-1.1-.2-.5-.4-1-.4-1.7s.1-1.2.4-1.7c.2-.5.6-.8,1-1.1.4-.3,1-.4,1.6-.4s1.1.1,1.5.4c.4.3.8.6,1,1.1.2.5.4,1,.4,1.7s-.1,1.2-.4,1.7c-.2.5-.6.8-1,1.1-.4.3-1,.4-1.5.4ZM610,75.1c.6,0,1-.2,1.3-.6.3-.4.4-.9.4-1.6s-.2-1.2-.5-1.6c-.3-.4-.7-.6-1.3-.6s-1,.2-1.3.6-.5.9-.5,1.6.1,1.3.4,1.6c.3.4.7.6,1.3.6ZM620,67.2v8.8h-1.2v-1c-.2.4-.4.6-.8.8-.3.2-.7.3-1.2.3s-1-.1-1.4-.4-.7-.6-1-1.1c-.2-.5-.3-1-.3-1.7s.1-1.2.3-1.6.5-.8.9-1.1c.4-.3.9-.4,1.4-.4s.9,0,1.2.3c.4.2.6.5.8.8v-3.7h1.2ZM617.1,75.1c.6,0,1-.2,1.3-.6.3-.4.5-.9.5-1.6s-.2-1.2-.5-1.6c-.3-.4-.7-.6-1.3-.6s-1,.2-1.3.6c-.3.4-.5.9-.5,1.6s.2,1.2.5,1.6c.3.4.7.6,1.3.6ZM627.4,70v6h-1.2v-1c-.2.4-.4.6-.8.8-.3.2-.7.3-1.2.3s-1-.1-1.4-.4c-.4-.3-.7-.6-.9-1.1-.2-.5-.3-1-.3-1.6s.1-1.2.3-1.7c.2-.5.6-.9,1-1.1.4-.3.9-.4,1.4-.4s.9,0,1.2.3c.3.2.6.5.8.8v-1h1.2ZM624.5,75.1c.5,0,1-.2,1.3-.6.3-.4.5-.9.5-1.6s-.2-1.2-.5-1.6c-.3-.4-.7-.6-1.3-.6s-1,.2-1.3.6c-.3.4-.5.9-.5,1.6s.2,1.2.5,1.6c.3.4.7.6,1.3.6ZM634.8,70l-2.8,6.5c-.3.7-.7,1.2-1.2,1.6-.5.3-1,.6-1.7.7l-.3-.9c.6-.1,1-.3,1.3-.5.3-.2.5-.5.7-.9l.2-.5-2.5-5.9h1.3l1.9,4.7,1.9-4.7h1.2Z"/>
          <path class="cls-4" d="M667,72h16"/>
          <path class="cls-21" d="M695.3,72.6v3.4h-1.2v-3.5l-3.4-5.1h1.4l2.6,4,2.6-4h1.4l-3.4,5.1ZM703.6,73h-4.3c0,1.4.7,2.1,1.9,2.1s1.3-.2,1.9-.7l.4.9c-.3.2-.6.4-1,.6-.4.1-.8.2-1.3.2-1,0-1.7-.3-2.3-.8-.6-.6-.8-1.3-.8-2.3s.1-1.2.4-1.6c.2-.5.6-.9,1-1.1s.9-.4,1.5-.4c.8,0,1.5.3,1.9.8.5.5.7,1.3.7,2.2v.2ZM701,70.7c-.5,0-.8.1-1.1.4-.3.3-.5.7-.6,1.2h3.2c0-.5-.2-.9-.5-1.2-.3-.3-.6-.4-1.1-.4ZM707.2,76.1c-1.1,0-1.9-.3-2.5-.8l.4-.9c.6.5,1.4.7,2.2.7s.7,0,.9-.2c.2-.1.3-.3.3-.6s0-.4-.2-.5c-.1-.1-.4-.2-.7-.3l-1-.2c-.5-.1-.9-.3-1.2-.6-.3-.3-.4-.6-.4-1.1s.2-1,.6-1.3c.4-.3,1-.5,1.7-.5s.8,0,1.2.2c.4.1.7.3,1,.6l-.4.9c-.6-.5-1.2-.7-1.8-.7s-.7,0-.9.2c-.2.1-.3.3-.3.6s0,.4.2.5c.1.1.4.2.6.3l1,.3c.6.1,1,.3,1.3.6.3.3.4.6.4,1.1s-.2,1-.7,1.3c-.4.3-1,.5-1.8.5ZM712.7,70.9v3c0,.4,0,.7.3.9.2.2.4.3.8.3s.4,0,.6,0v1c-.3,0-.6.1-.9.1-.6,0-1.1-.2-1.5-.5s-.5-.9-.5-1.5v-3.1h-1.2v-.9h1.2v-1.5l1.2-.4v1.9h1.7v.9h-1.7ZM720.7,73h-4.3c0,1.4.7,2.1,1.9,2.1s1.3-.2,1.9-.7l.4.9c-.3.2-.6.4-1,.6-.4.1-.8.2-1.3.2-1,0-1.7-.3-2.3-.8-.6-.6-.8-1.3-.8-2.3s.1-1.2.4-1.6c.2-.5.6-.9,1-1.1s.9-.4,1.5-.4c.8,0,1.5.3,1.9.8.5.5.7,1.3.7,2.2v.2ZM718.1,70.7c-.5,0-.8.1-1.1.4-.3.3-.5.7-.6,1.2h3.2c0-.5-.2-.9-.5-1.2-.3-.3-.6-.4-1.1-.4ZM725.2,69.8c.2,0,.4,0,.6,0v1.1c-.2,0-.5-.1-.7-.1-.6,0-1,.2-1.2.5-.3.3-.4.7-.4,1.2v3.4h-1.2v-4.3c0-.6,0-1.2,0-1.7h1.1v1.1c.3-.4.5-.7.9-.9.3-.2.7-.3,1.1-.3ZM732.3,67.2v8.8h-1.2v-1c-.2.4-.4.6-.8.8-.3.2-.7.3-1.2.3s-1-.1-1.4-.4c-.4-.3-.7-.6-1-1.1-.2-.5-.3-1-.3-1.7s.1-1.2.3-1.6.5-.8.9-1.1c.4-.3.9-.4,1.4-.4s.9,0,1.2.3c.4.2.6.5.8.8v-3.7h1.2ZM729.3,75.1c.6,0,1-.2,1.3-.6.3-.4.5-.9.5-1.6s-.2-1.2-.5-1.6c-.3-.4-.7-.6-1.3-.6s-1,.2-1.3.6c-.3.4-.5.9-.5,1.6s.2,1.2.5,1.6c.3.4.7.6,1.3.6ZM739.7,70v6h-1.2v-1c-.2.4-.4.6-.8.8-.3.2-.7.3-1.2.3s-1-.1-1.4-.4c-.4-.3-.7-.6-.9-1.1-.2-.5-.3-1-.3-1.6s.1-1.2.3-1.7c.2-.5.6-.9,1-1.1.4-.3.9-.4,1.4-.4s.9,0,1.2.3c.3.2.6.5.8.8v-1h1.2ZM736.8,75.1c.5,0,1-.2,1.3-.6.3-.4.5-.9.5-1.6s-.2-1.2-.5-1.6c-.3-.4-.7-.6-1.3-.6s-1,.2-1.3.6c-.3.4-.5.9-.5,1.6s.2,1.2.5,1.6c.3.4.7.6,1.3.6ZM747.1,70l-2.8,6.5c-.3.7-.7,1.2-1.2,1.6-.5.3-1,.6-1.7.7l-.3-.9c.6-.1,1-.3,1.3-.5.3-.2.5-.5.7-.9l.2-.5-2.5-5.9h1.3l1.9,4.7,1.9-4.7h1.2Z"/>
          <g class="cls-15">
            <g>
              <path class="cls-9" d="M32,489h686"/>
              <path class="cls-9" d="M32,433h686"/>
              <path class="cls-9" d="M32,377h686"/>
              <path class="cls-9" d="M32,321h686"/>
              <path class="cls-9" d="M32,265h686"/>
              <path class="cls-9" d="M32,209h686"/>
              <path class="cls-9" d="M32,153h686"/>
              <path class="cls-9" d="M446,268l1,221"/>
              <g class="cls-19">
                <g>
                  <path class="cls-21" d="M35,511.1c-.8,0-1.4-.3-1.9-.9-.4-.6-.6-1.5-.6-2.7s.2-2.1.6-2.7c.4-.6,1-.9,1.9-.9s1.4.3,1.9.9c.4.6.6,1.5.6,2.7s-.2,2.1-.6,2.7c-.4.6-1,.9-1.9.9ZM35,510.4c.6,0,1-.2,1.2-.7.3-.5.4-1.2.4-2.2s-.1-1.8-.4-2.2c-.3-.5-.7-.7-1.2-.7s-1,.2-1.3.7c-.3.5-.4,1.2-.4,2.2s.1,1.8.4,2.2c.3.5.7.7,1.3.7Z"/>
                  <path class="cls-21" d="M60.9,510.6v-6.3l.5.2-1.9,1.2v-.8l1.8-1.2h.5v6.8h-.8ZM59.3,511v-.7h4v.7h-4Z"/>
                  <path class="cls-21" d="M84.8,511v-.6l2.5-2.8c.3-.4.6-.7.7-1,.2-.3.2-.6.2-.9s-.1-.7-.3-.9c-.2-.2-.6-.3-1-.3s-.7,0-1,.2c-.3.1-.7.3-1,.6l-.3-.6c.3-.3.6-.5,1.1-.6.4-.2.9-.2,1.3-.2s.8,0,1.1.2c.3.1.6.4.7.6.2.3.3.6.3,1s0,.8-.3,1.2c-.2.4-.5.8-.9,1.3l-2.4,2.6v-.4c0,0,3.9,0,3.9,0v.7h-4.6Z"/>
                  <path class="cls-21" d="M112.9,511.1c-.5,0-.9,0-1.3-.2-.4-.2-.8-.4-1.1-.6l.3-.6c.3.3.7.5,1,.6.3.1.7.2,1.1.2s.9-.1,1.1-.3c.3-.2.4-.6.4-1s-.1-.8-.4-1c-.3-.2-.7-.3-1.2-.3h-.8v-.7h.7c.5,0,.9-.1,1.2-.4s.4-.6.4-1-.1-.7-.3-.9c-.2-.2-.6-.3-1-.3s-.7,0-1,.2c-.3.1-.7.3-1,.6l-.3-.6c.3-.3.6-.5,1.1-.6.4-.2.9-.2,1.3-.2s.8,0,1.1.2c.3.1.6.4.7.6.2.3.3.6.3,1s-.1.8-.3,1.1c-.2.3-.5.5-.9.6h0c.5,0,.8.2,1.1.5s.4.7.4,1.2-.2,1.1-.6,1.5c-.4.4-1,.5-1.7.5Z"/>
                  <path class="cls-21" d="M139.8,511v-6.1h.2l-3,4.3v-.4h4.6v.7h-5.2v-.6l3.4-4.9h.7v7.1h-.8Z"/>
                  <path class="cls-21" d="M165.1,511.1c-.4,0-.9,0-1.3-.2-.4-.2-.8-.4-1.1-.6l.3-.6c.3.3.7.5,1,.6.3.1.7.2,1,.2.5,0,.9-.1,1.2-.4.3-.3.4-.7.4-1.2s0-.6-.2-.8c-.1-.2-.3-.4-.5-.6-.2-.1-.5-.2-.8-.2s-.6,0-.9.2c-.3.1-.5.3-.7.6h-.6v-4.2h4.3v.7h-3.4v2.9h-.3c.2-.3.4-.5.7-.7.3-.2.6-.2,1-.2s.8,0,1.2.3c.3.2.6.4.8.8.2.3.3.7.3,1.2s-.1.8-.3,1.2c-.2.3-.5.6-.8.8s-.8.3-1.3.3Z"/>
                  <path class="cls-21" d="M191.2,511.1c-.9,0-1.5-.3-2-.9-.5-.6-.7-1.5-.7-2.6s.1-1.5.3-2.1c.2-.6.5-1,.9-1.3.4-.3.9-.5,1.5-.5s.8,0,1.2.2c.4.1.7.4,1,.6l-.3.6c-.3-.3-.7-.5-1-.6-.3-.1-.6-.2-.9-.2-.6,0-1.1.3-1.4.8-.3.5-.5,1.3-.5,2.3v.9-.3c0-.3,0-.6.2-.9.2-.3.4-.4.7-.6.3-.1.6-.2,1-.2s.8,0,1.2.3c.3.2.6.4.8.8.2.3.3.7.3,1.2s-.1.8-.3,1.2c-.2.3-.5.6-.8.8-.3.2-.7.3-1.2.3ZM191.2,510.4c.5,0,.8-.1,1.1-.4.3-.3.4-.7.4-1.2s-.1-.9-.4-1.1c-.3-.3-.7-.4-1.1-.4s-.6,0-.8.2c-.2.1-.4.3-.6.6-.1.2-.2.5-.2.8s0,.6.2.8c.1.2.3.4.6.5s.5.2.8.2Z"/>
                  <path class="cls-21" d="M216,511h-.9l3.5-6.8v.3c0,0-4,0-4,0v-.7h4.7v.6l-3.3,6.5Z"/>
                  <path class="cls-21" d="M243,511.1c-.5,0-1,0-1.4-.2-.4-.2-.7-.4-.9-.7-.2-.3-.3-.6-.3-1.1s.2-.9.5-1.2c.3-.3.8-.5,1.3-.6v.2c-.6-.1-1-.3-1.3-.6-.3-.3-.4-.7-.4-1.1s.1-.7.3-1c.2-.3.5-.5.8-.7.4-.2.8-.2,1.2-.2s.9,0,1.2.2c.4.2.6.4.8.7.2.3.3.6.3,1s-.1.8-.4,1.1c-.3.3-.7.5-1.2.6v-.2c.5,0,1,.3,1.3.6.3.3.5.7.5,1.2s-.1.8-.3,1.1c-.2.3-.5.5-.9.7-.4.2-.8.2-1.4.2ZM243,510.4c.6,0,1-.1,1.3-.3.3-.2.4-.6.4-1s-.2-.7-.5-1c-.3-.2-.7-.4-1.2-.4-.5,0-.9.2-1.2.4-.3.2-.5.5-.5,1s.2.8.5,1c.3.2.7.3,1.3.3ZM243,507.1c.5,0,.8-.2,1.1-.4.3-.2.4-.5.4-.9s-.1-.7-.4-.9c-.3-.2-.7-.3-1.1-.3s-.9.1-1.2.3c-.3.2-.4.5-.4.9s.1.7.4.9c.3.2.7.4,1.1.4Z"/>
                  <path class="cls-21" d="M268.8,503.8c.9,0,1.5.3,2,.9.5.6.7,1.4.7,2.6s-.1,1.5-.3,2.1c-.2.6-.5,1-.9,1.3-.4.3-.9.4-1.5.4s-.8,0-1.2-.2c-.4-.2-.7-.4-1-.7l.3-.6c.3.3.7.5,1,.6.3.1.6.2.9.2.6,0,1.1-.3,1.4-.8.3-.5.5-1.3.5-2.3v-.9.3c0,.3,0,.6-.2.9-.2.2-.4.4-.7.6-.3.1-.6.2-1,.2s-.8,0-1.1-.3c-.3-.2-.6-.5-.8-.8s-.3-.7-.3-1.2,0-.8.3-1.2c.2-.3.5-.6.8-.8.3-.2.7-.3,1.2-.3ZM268.8,504.5c-.5,0-.8.1-1.1.4-.3.3-.4.7-.4,1.1s.1.9.4,1.2c.3.3.7.4,1.1.4s.6,0,.8-.2c.2-.1.4-.3.6-.6.1-.2.2-.5.2-.8s0-.6-.2-.8c-.1-.2-.3-.4-.6-.6-.2-.1-.5-.2-.8-.2Z"/>
                  <path class="cls-21" d="M295.8,510.6v-6.3l.5.2-1.9,1.2v-.8l1.8-1.2h.5v6.8h-.8ZM294.2,511v-.7h4v.7h-4ZM302,511.1c-.8,0-1.4-.3-1.9-.9-.4-.6-.6-1.5-.6-2.7s.2-2.1.6-2.7c.4-.6,1-.9,1.9-.9s1.4.3,1.9.9c.4.6.6,1.5.6,2.7s-.2,2.1-.6,2.7c-.4.6-1,.9-1.9.9ZM302,510.4c.6,0,1-.2,1.2-.7.3-.5.4-1.2.4-2.2s-.1-1.8-.4-2.2c-.3-.5-.7-.7-1.2-.7s-1,.2-1.3.7c-.3.5-.4,1.2-.4,2.2s.1,1.8.4,2.2c.3.5.7.7,1.3.7Z"/>
                  <path class="cls-21" d="M329.8,510.6v-6.3l.5.2-1.9,1.2v-.8l1.8-1.2h.5v6.8h-.8ZM328.2,511v-.7h4v.7h-4ZM335.9,510.6v-6.3l.5.2-1.9,1.2v-.8l1.8-1.2h.5v6.8h-.8ZM334.3,511v-.7h4v.7h-4Z"/>
                  <path class="cls-21" d="M363.8,510.6v-6.3l.5.2-1.9,1.2v-.8l1.8-1.2h.5v6.8h-.8ZM362.2,511v-.7h4v.7h-4ZM367.9,511v-.6l2.5-2.8c.3-.4.6-.7.7-1,.2-.3.2-.6.2-.9s-.1-.7-.3-.9c-.2-.2-.5-.3-1-.3s-.7,0-1,.2c-.3.1-.7.3-1,.6l-.3-.6c.3-.3.6-.5,1.1-.6s.9-.2,1.3-.2.8,0,1.1.2c.3.1.6.4.7.6s.3.6.3,1,0,.8-.3,1.2c-.2.4-.5.8-.9,1.3l-2.4,2.6v-.4c0,0,3.9,0,3.9,0v.7h-4.6Z"/>
                  <path class="cls-21" d="M397.8,510.6v-6.3l.5.2-1.9,1.2v-.8l1.8-1.2h.5v6.8h-.8ZM396.2,511v-.7h4v.7h-4ZM404,511.1c-.5,0-.9,0-1.3-.2-.4-.2-.8-.4-1.1-.6l.3-.6c.3.3.6.5,1,.6.3.1.7.2,1.1.2s.9-.1,1.1-.3c.3-.2.4-.6.4-1s-.1-.8-.4-1c-.3-.2-.7-.3-1.2-.3h-.8v-.7h.7c.5,0,.9-.1,1.2-.4s.4-.6.4-1-.1-.7-.4-.9c-.2-.2-.5-.3-1-.3s-.7,0-1,.2c-.3.1-.7.3-1,.6l-.3-.6c.3-.3.6-.5,1.1-.6.4-.2.9-.2,1.3-.2s.8,0,1.1.2c.3.1.6.4.7.6.2.3.3.6.3,1s-.1.8-.4,1.1c-.2.3-.5.5-.9.6h0c.5,0,.8.2,1.1.5s.4.7.4,1.2-.2,1.1-.6,1.5c-.4.4-1,.5-1.7.5Z"/>
                  <path class="cls-21" d="M431.8,510.6v-6.3l.5.2-1.9,1.2v-.8l1.8-1.2h.5v6.8h-.8ZM430.2,511v-.7h4v.7h-4ZM438.8,511v-6.1h.2l-3,4.3v-.4h4.6v.7h-5.2v-.6l3.4-4.9h.7v7.1h-.8Z"/>
                  <path class="cls-21" d="M465.8,510.6v-6.3l.5.2-1.9,1.2v-.8l1.8-1.2h.5v6.8h-.8ZM464.2,511v-.7h4v.7h-4ZM472.2,511.1c-.4,0-.9,0-1.3-.2-.4-.2-.8-.4-1.1-.6l.3-.6c.3.3.7.5,1,.6.3.1.7.2,1,.2.5,0,.9-.1,1.2-.4.3-.3.4-.7.4-1.2s0-.6-.2-.8c-.1-.2-.3-.4-.5-.6-.2-.1-.5-.2-.8-.2s-.6,0-.9.2c-.3.1-.5.3-.7.6h-.6v-4.2h4.3v.7h-3.5v2.9h-.3c.2-.3.4-.5.7-.7.3-.2.6-.2,1-.2s.8,0,1.2.3c.3.2.6.4.8.8.2.3.3.7.3,1.2s-.1.8-.3,1.2c-.2.3-.5.6-.8.8-.4.2-.8.3-1.3.3Z"/>
                  <path class="cls-21" d="M499.8,510.6v-6.3l.5.2-1.9,1.2v-.8l1.8-1.2h.5v6.8h-.8ZM498.2,511v-.7h4v.7h-4ZM506.3,511.1c-.9,0-1.5-.3-2-.9-.5-.6-.7-1.5-.7-2.6s.1-1.5.3-2.1c.2-.6.5-1,.9-1.3.4-.3.9-.5,1.5-.5s.8,0,1.2.2c.4.1.7.4,1,.6l-.3.6c-.3-.3-.7-.5-1-.6-.3-.1-.6-.2-.9-.2-.6,0-1.1.3-1.4.8-.3.5-.5,1.3-.5,2.3v.9-.3c0-.3,0-.6.2-.9.2-.3.4-.4.7-.6.3-.1.6-.2,1-.2s.8,0,1.2.3c.3.2.6.4.8.8.2.3.3.7.3,1.2s-.1.8-.3,1.2c-.2.3-.5.6-.8.8-.3.2-.7.3-1.2.3ZM506.2,510.4c.5,0,.8-.1,1.1-.4.3-.3.4-.7.4-1.2s-.1-.9-.4-1.1c-.3-.3-.6-.4-1.1-.4s-.6,0-.8.2c-.2.1-.4.3-.6.6-.1.2-.2.5-.2.8s0,.6.2.8c.1.2.3.4.6.5s.5.2.8.2Z"/>
                  <path class="cls-21" d="M533.8,510.6v-6.3l.5.2-1.9,1.2v-.8l1.8-1.2h.5v6.8h-.8ZM532.2,511v-.7h4v.7h-4ZM539.1,511h-.9l3.5-6.8v.3c0,0-4,0-4,0v-.7h4.7v.6l-3.3,6.5Z"/>
                  <path class="cls-21" d="M567.8,510.6v-6.3l.5.2-1.9,1.2v-.8l1.8-1.2h.5v6.8h-.8ZM566.2,511v-.7h4v.7h-4ZM574,511.1c-.5,0-1,0-1.3-.2-.4-.2-.7-.4-.9-.7-.2-.3-.3-.6-.3-1.1s.2-.9.5-1.2.8-.5,1.3-.6v.2c-.6-.1-1-.3-1.3-.6-.3-.3-.4-.7-.4-1.1s.1-.7.3-1c.2-.3.5-.5.8-.7.4-.2.8-.2,1.2-.2s.9,0,1.2.2c.4.2.6.4.8.7.2.3.3.6.3,1s-.1.8-.4,1.1c-.3.3-.7.5-1.2.6v-.2c.5,0,1,.3,1.3.6.3.3.5.7.5,1.2s-.1.8-.3,1.1c-.2.3-.5.5-.9.7-.4.2-.8.2-1.4.2ZM574,510.4c.6,0,1-.1,1.3-.3.3-.2.4-.6.4-1s-.2-.7-.5-1c-.3-.2-.7-.4-1.2-.4-.5,0-.9.2-1.2.4-.3.2-.5.5-.5,1s.2.8.5,1c.3.2.7.3,1.3.3ZM574,507.1c.5,0,.8-.2,1.1-.4.3-.2.4-.5.4-.9s-.1-.7-.4-.9c-.3-.2-.7-.3-1.2-.3s-.9.1-1.2.3c-.3.2-.4.5-.4.9s.1.7.4.9c.3.2.7.4,1.1.4Z"/>
                  <path class="cls-21" d="M601.8,510.6v-6.3l.5.2-1.9,1.2v-.8l1.8-1.2h.5v6.8h-.8ZM600.2,511v-.7h4v.7h-4ZM607.8,503.8c.9,0,1.5.3,2,.9.5.6.7,1.4.7,2.6s-.1,1.5-.3,2.1c-.2.6-.5,1-.9,1.3-.4.3-.9.4-1.5.4s-.8,0-1.2-.2c-.4-.2-.7-.4-1-.7l.3-.6c.3.3.7.5,1,.6.3.1.6.2.9.2.6,0,1.1-.3,1.4-.8.3-.5.5-1.3.5-2.3v-.9.3c0,.3,0,.6-.2.9-.2.2-.4.4-.7.6-.3.1-.6.2-1,.2s-.8,0-1.2-.3c-.3-.2-.6-.5-.8-.8s-.3-.7-.3-1.2,0-.8.3-1.2c.2-.3.5-.6.8-.8.3-.2.7-.3,1.2-.3ZM607.9,504.5c-.5,0-.8.1-1.1.4-.3.3-.4.7-.4,1.1s.1.9.4,1.2c.3.3.6.4,1.1.4s.6,0,.8-.2c.2-.1.4-.3.6-.6.1-.2.2-.5.2-.8s0-.6-.2-.8c-.1-.2-.3-.4-.6-.6s-.5-.2-.8-.2Z"/>
                  <path class="cls-21" d="M633.8,511v-.6l2.5-2.8c.3-.4.6-.7.7-1,.2-.3.2-.6.2-.9s-.1-.7-.3-.9c-.2-.2-.5-.3-1-.3s-.7,0-1,.2c-.3.1-.7.3-1,.6l-.3-.6c.3-.3.6-.5,1.1-.6s.9-.2,1.3-.2.8,0,1.1.2c.3.1.6.4.7.6.2.3.3.6.3,1s0,.8-.3,1.2c-.2.4-.5.8-.9,1.3l-2.4,2.6v-.4c0,0,3.9,0,3.9,0v.7h-4.6ZM642,511.1c-.8,0-1.4-.3-1.9-.9-.4-.6-.6-1.5-.6-2.7s.2-2.1.6-2.7c.4-.6,1-.9,1.9-.9s1.4.3,1.9.9c.4.6.6,1.5.6,2.7s-.2,2.1-.6,2.7c-.4.6-1,.9-1.9.9ZM642,510.4c.6,0,1-.2,1.2-.7.3-.5.4-1.2.4-2.2s-.1-1.8-.4-2.2c-.3-.5-.7-.7-1.2-.7s-1,.2-1.3.7c-.3.5-.4,1.2-.4,2.2s.1,1.8.4,2.2c.3.5.7.7,1.3.7Z"/>
                  <path class="cls-21" d="M667.8,511v-.6l2.5-2.8c.3-.4.6-.7.7-1,.2-.3.2-.6.2-.9s-.1-.7-.3-.9c-.2-.2-.5-.3-1-.3s-.7,0-1,.2c-.3.1-.7.3-1,.6l-.3-.6c.3-.3.6-.5,1.1-.6s.9-.2,1.3-.2.8,0,1.1.2c.3.1.6.4.7.6.2.3.3.6.3,1s0,.8-.3,1.2c-.2.4-.5.8-.9,1.3l-2.4,2.6v-.4c0,0,3.9,0,3.9,0v.7h-4.6ZM675.9,510.6v-6.3l.5.2-1.9,1.2v-.8l1.8-1.2h.5v6.8h-.8ZM674.3,511v-.7h4v.7h-4Z"/>
                  <path class="cls-21" d="M701.8,511v-.6l2.5-2.8c.3-.4.6-.7.7-1,.2-.3.2-.6.2-.9s-.1-.7-.3-.9c-.2-.2-.5-.3-1-.3s-.7,0-1,.2c-.3.1-.7.3-1,.6l-.3-.6c.3-.3.6-.5,1.1-.6s.9-.2,1.3-.2.8,0,1.1.2c.3.1.6.4.7.6.2.3.3.6.3,1s0,.8-.3,1.2c-.2.4-.5.8-.9,1.3l-2.4,2.6v-.4c0,0,3.9,0,3.9,0v.7h-4.6ZM707.9,511v-.6l2.5-2.8c.3-.4.6-.7.7-1,.2-.3.2-.6.2-.9s-.1-.7-.3-.9c-.2-.2-.5-.3-1-.3s-.7,0-1,.2c-.3.1-.7.3-1,.6l-.3-.6c.3-.3.6-.5,1.1-.6s.9-.2,1.3-.2.8,0,1.1.2c.3.1.6.4.7.6.2.3.3.6.3,1s0,.8-.3,1.2c-.2.4-.5.8-.9,1.3l-2.4,2.6v-.4c0,0,3.9,0,3.9,0v.7h-4.6Z"/>
                </g>
              </g>
              <path class="cls-21" d="M715,480.1c-.8,0-1.4-.3-1.9-.9-.4-.6-.6-1.5-.6-2.7s.2-2.1.6-2.7c.4-.6,1-.9,1.9-.9s1.4.3,1.9.9c.4.6.6,1.5.6,2.7s-.2,2.1-.6,2.7c-.4.6-1,.9-1.8.9ZM715,479.4c.6,0,1-.2,1.2-.7.3-.5.4-1.2.4-2.2s-.1-1.8-.4-2.2c-.3-.5-.7-.7-1.2-.7s-1,.2-1.3.7c-.3.5-.4,1.2-.4,2.2s.1,1.8.4,2.2c.3.5.7.7,1.3.7Z"/>
              <path class="cls-21" d="M708.8,423.6v-6.3l.5.2-1.9,1.2v-.8l1.8-1.2h.5v6.8h-.8ZM707.2,424v-.7h4v.7h-4ZM715,424.1c-.8,0-1.4-.3-1.9-.9-.4-.6-.6-1.5-.6-2.7s.2-2.1.6-2.7c.4-.6,1-.9,1.9-.9s1.4.3,1.9.9c.4.6.6,1.5.6,2.7s-.2,2.1-.6,2.7c-.4.6-1,.9-1.8.9ZM715,423.4c.6,0,1-.2,1.2-.7.3-.5.4-1.2.4-2.2s-.1-1.8-.4-2.2c-.3-.5-.7-.7-1.2-.7s-1,.2-1.3.7c-.3.5-.4,1.2-.4,2.2s.1,1.8.4,2.2c.3.5.7.7,1.3.7Z"/>
              <path class="cls-21" d="M706.7,368v-.6l2.5-2.8c.3-.4.6-.7.7-1,.2-.3.2-.6.2-.9s-.1-.7-.3-.9c-.2-.2-.6-.3-1-.3s-.7,0-1,.2c-.3.1-.7.3-1,.6l-.3-.6c.3-.3.6-.5,1.1-.6.4-.2.9-.2,1.3-.2s.8,0,1.1.2c.3.1.6.4.7.6.2.3.3.6.3,1s0,.8-.3,1.2c-.2.4-.5.8-.9,1.3l-2.4,2.6v-.4c0,0,3.9,0,3.9,0v.7h-4.6ZM715,368.1c-.8,0-1.4-.3-1.9-.9-.4-.6-.6-1.5-.6-2.7s.2-2.1.6-2.7c.4-.6,1-.9,1.9-.9s1.4.3,1.9.9c.4.6.6,1.5.6,2.7s-.2,2.1-.6,2.7c-.4.6-1,.9-1.8.9ZM715,367.4c.6,0,1-.2,1.2-.7.3-.5.4-1.2.4-2.2s-.1-1.8-.4-2.2c-.3-.5-.7-.7-1.2-.7s-1,.2-1.3.7c-.3.5-.4,1.2-.4,2.2s.1,1.8.4,2.2c.3.5.7.7,1.3.7Z"/>
              <path class="cls-21" d="M708.8,312.1c-.5,0-.9,0-1.3-.2-.4-.2-.8-.4-1.1-.6l.3-.6c.3.3.7.5,1,.6.3.1.7.2,1.1.2s.9-.1,1.2-.3c.3-.2.4-.6.4-1s-.1-.8-.4-1c-.3-.2-.7-.3-1.2-.3h-.8v-.7h.7c.5,0,.9-.1,1.2-.4.3-.2.4-.6.4-1s-.1-.7-.3-.9c-.2-.2-.6-.3-1-.3s-.7,0-1,.2c-.3.1-.7.3-1,.6l-.3-.6c.3-.3.6-.5,1.1-.6.4-.2.9-.2,1.3-.2s.8,0,1.1.2c.3.1.6.4.7.6.2.3.3.6.3,1s-.1.8-.3,1.1c-.2.3-.5.5-.9.6h0c.5,0,.8.2,1.1.5.3.3.4.7.4,1.2s-.2,1.1-.6,1.5c-.4.4-1,.5-1.7.5ZM715,312.1c-.8,0-1.4-.3-1.9-.9-.4-.6-.6-1.5-.6-2.7s.2-2.1.6-2.7c.4-.6,1-.9,1.9-.9s1.4.3,1.9.9c.4.6.6,1.5.6,2.7s-.2,2.1-.6,2.7c-.4.6-1,.9-1.8.9ZM715,311.4c.6,0,1-.2,1.2-.7.3-.5.4-1.2.4-2.2s-.1-1.8-.4-2.2c-.3-.5-.7-.7-1.2-.7s-1,.2-1.3.7c-.3.5-.4,1.2-.4,2.2s.1,1.8.4,2.2c.3.5.7.7,1.3.7Z"/>
              <path class="cls-21" d="M709.7,256v-6.1h.2l-3,4.3v-.4h4.6v.7h-5.2v-.6l3.4-4.9h.7v7.1h-.8ZM715,256.1c-.8,0-1.4-.3-1.9-.9-.4-.6-.6-1.5-.6-2.7s.2-2.1.6-2.7c.4-.6,1-.9,1.9-.9s1.4.3,1.9.9c.4.6.6,1.5.6,2.7s-.2,2.1-.6,2.7c-.4.6-1,.9-1.8.9ZM715,255.4c.6,0,1-.2,1.2-.7.3-.5.4-1.2.4-2.2s-.1-1.8-.4-2.2c-.3-.5-.7-.7-1.2-.7s-1,.2-1.3.7c-.3.5-.4,1.2-.4,2.2s.1,1.8.4,2.2c.3.5.7.7,1.3.7Z"/>
              <path class="cls-21" d="M709,200.1c-.4,0-.9,0-1.3-.2-.4-.2-.8-.4-1.1-.6l.3-.6c.3.3.7.5,1,.6.3.1.7.2,1,.2s.9-.1,1.2-.4c.3-.3.4-.7.4-1.2s0-.6-.2-.8c-.1-.2-.3-.4-.5-.6-.2-.1-.5-.2-.8-.2s-.6,0-.9.2c-.3.1-.5.3-.7.6h-.6v-4.2h4.3v.7h-3.5v2.9h-.3c.2-.3.4-.5.7-.7.3-.2.7-.2,1-.2s.8,0,1.2.3c.3.2.6.4.8.8s.3.7.3,1.2,0,.8-.3,1.2c-.2.3-.5.6-.8.8-.4.2-.8.3-1.3.3ZM715,200.1c-.8,0-1.4-.3-1.9-.9-.4-.6-.6-1.5-.6-2.7s.2-2.1.6-2.7c.4-.6,1-.9,1.9-.9s1.4.3,1.9.9c.4.6.6,1.5.6,2.7s-.2,2.1-.6,2.7c-.4.6-1,.9-1.8.9ZM715,199.4c.6,0,1-.2,1.2-.7.3-.5.4-1.2.4-2.2s-.1-1.8-.4-2.2c-.3-.5-.7-.7-1.2-.7s-1,.2-1.3.7c-.3.5-.4,1.2-.4,2.2s.1,1.8.4,2.2c.3.5.7.7,1.3.7Z"/>
              <path class="cls-21" d="M709.1,144.1c-.9,0-1.5-.3-2-.9-.5-.6-.7-1.5-.7-2.6s.1-1.5.3-2.1c.2-.6.5-1,.9-1.3.4-.3.9-.4,1.5-.4s.8,0,1.2.2c.4.1.7.4,1,.6l-.3.6c-.3-.3-.7-.5-1-.6-.3-.1-.6-.2-.9-.2-.6,0-1.1.3-1.4.8-.3.5-.5,1.3-.5,2.3v.9-.3c0-.3,0-.6.2-.9.2-.3.4-.4.7-.6.3-.1.6-.2,1-.2s.8,0,1.2.3c.3.2.6.4.8.8.2.3.3.7.3,1.2s0,.8-.3,1.2c-.2.3-.5.6-.8.8-.3.2-.7.3-1.2.3ZM709.1,143.4c.5,0,.8-.1,1.1-.4.3-.3.4-.7.4-1.2s-.1-.9-.4-1.1c-.3-.3-.7-.4-1.1-.4s-.6,0-.8.2c-.2.1-.4.3-.6.6-.1.2-.2.5-.2.8s0,.6.2.8c.1.2.3.4.6.6s.5.2.8.2ZM715,144.1c-.8,0-1.4-.3-1.9-.9-.4-.6-.6-1.5-.6-2.7s.2-2.1.6-2.7c.4-.6,1-.9,1.9-.9s1.4.3,1.9.9c.4.6.6,1.5.6,2.7s-.2,2.1-.6,2.7c-.4.6-1,.9-1.8.9ZM715,143.4c.6,0,1-.2,1.2-.7.3-.5.4-1.2.4-2.2s-.1-1.8-.4-2.2c-.3-.5-.7-.7-1.2-.7s-1,.2-1.3.7c-.3.5-.4,1.2-.4,2.2s.1,1.8.4,2.2c.3.5.7.7,1.3.7Z"/>
              <g class="cls-13">
                <g>
                  <path class="cls-1" d="M126.5,322.9c-46.9-1.7-91.5,76.3-103.6,108.8v102.8h604.9v-256.5c-56-2.5-73.7-58.9-116.6-58.9s-81.6,81.6-103.5,124.5c-17.9,38.2-40.8,46.4-50,45.7-42.8,1.7-75.3-83.7-86.2-126.6-9.7-48.2-20.5-58.1-25.9-58.1-9,0-22.4,14.1-36.2,62.3-13.8,48.2-35.6,61.6-44.8,62.3-12.9,1-28.2-6.2-37.9-6.2Z"/>
                  <path class="cls-6" d="M22.9,307c76.5-37.5,76.9,53.4,129.4,53.4s37.7-54.8,98.3-63.6c60.6-8.8,98.8,98.2,147.9,98.2s72.1-143,89.2-143,7.6,72.5,50.1,72.5,69-47.8,111.7-49.5"/>
                  <path class="cls-5" d="M22.9,431.7c12-32.5,56.4-110.5,103.1-108.8,9.7,0,25,7.2,37.8,6.2,9.2-.7,30.9-14.1,44.6-62.3,13.7-48.2,27.1-62.3,36.1-62.3,5.3,0,16.1,10,25.8,58.1,10.9,42.9,43.3,128.3,85.9,126.6,9.2.7,31.9-7.5,49.8-45.7,21.8-42.9,60.3-124.5,103-124.5s60.3,56.4,116.1,58.9"/>
                  <circle class="cls-2" cx="446" cy="268" r="13"/>
                  <g>
                    <circle class="cls-11" cx="446" cy="268" r="7"/>
                    <circle class="cls-8" cx="446" cy="268" r="5"/>
                  </g>
                  <g>
                    <path class="cls-12" d="M418,207h56c2.2,0,4,1.8,4,4v22c0,2.2-1.8,4-4,4h-21l-6.7,5.8c-.1.1-.4.1-.5,0l-6.7-5.8h-21c-2.2,0-4-1.8-4-4v-22c0-2.2,1.8-4,4-4Z"/>
                    <g class="cls-10">
                      <path class="cls-17" d="M474,237v.5h0v-.5ZM453,237v-.5h-.3c0,.1.3.5.3.5ZM446.3,242.8l-.3-.4h0l.3.4ZM445.7,242.8l.3-.4h0l-.3.4ZM439,237l.3-.4h-.1c0-.1-.2-.1-.2-.1v.5ZM418,237v.5h0v-.5ZM474,206.5h-56v1h56v-1ZM478.5,211c0-2.5-2-4.5-4.5-4.5v1c1.9,0,3.5,1.6,3.5,3.5h1ZM478.5,233v-22h-1v22h1ZM474,237.5c2.5,0,4.5-2,4.5-4.5h-1c0,1.9-1.6,3.5-3.5,3.5v1ZM453,237.5h21v-1h-21v1ZM452.7,236.6l-6.7,5.8.7.8,6.7-5.8-.7-.8ZM445.9,242.4s0,0,.1,0l-.7.8c.3.3.8.3,1.2,0l-.7-.8ZM446.1,242.4l-6.7-5.8-.7.8,6.7,5.8.7-.8ZM418,237.5h21v-1h-21v1ZM413.5,233c0,2.5,2,4.5,4.5,4.5v-1c-1.9,0-3.5-1.6-3.5-3.5h-1ZM413.5,211v22h1v-22h-1ZM418,206.5c-2.5,0-4.5,2-4.5,4.5h1c0-1.9,1.6-3.5,3.5-3.5v-1Z"/>
                    </g>
                  </g>
                  <path class="cls-18" d="M443.1,221.9c.6.2,1,.5,1.3.9.3.4.5.9.5,1.6s-.3,1.6-.9,2.1c-.6.5-1.4.7-2.5.7s-1.3-.1-1.9-.3c-.6-.2-1.1-.5-1.5-.9l.5-1.1c.9.7,1.8,1.1,2.8,1.1s2-.6,2-1.7-.2-1-.5-1.2c-.4-.3-.9-.4-1.6-.4h-1.2v-1.2h1c.7,0,1.2-.1,1.6-.4.4-.3.5-.7.5-1.3s-.2-.9-.5-1.2c-.3-.3-.7-.4-1.3-.4-.9,0-1.9.4-2.8,1.1l-.5-1.1c.4-.4.9-.7,1.5-.9.6-.2,1.2-.3,1.9-.3.9,0,1.7.2,2.2.7.6.5.8,1.1.8,1.9s-.1,1.1-.4,1.5c-.3.4-.7.7-1.1.9ZM451.8,221.9c.6.2,1.1.5,1.5.9.4.4.5.9.5,1.6,0,.9-.3,1.5-1,2-.7.5-1.5.7-2.6.7s-2-.2-2.7-.7c-.7-.5-1-1.2-1-2s.2-1.1.5-1.6c.4-.4.9-.7,1.5-.9-.6-.2-1-.5-1.4-.9-.3-.4-.5-.9-.5-1.4s.1-1,.4-1.4c.3-.4.7-.7,1.2-.9.5-.2,1.1-.3,1.8-.3s1.3.1,1.8.3c.5.2.9.5,1.2.9.3.4.4.9.4,1.4s-.2,1-.5,1.4c-.3.4-.8.7-1.3.9ZM448.2,219.7c0,.5.2.9.5,1.2.4.3.9.5,1.5.6.6,0,1.1-.3,1.5-.6.4-.3.5-.7.5-1.2s-.2-.9-.5-1.2c-.4-.3-.8-.4-1.5-.4s-1.1.1-1.5.4c-.4.3-.5.7-.5,1.2ZM450.2,225.9c.7,0,1.3-.1,1.7-.4s.6-.7.6-1.3-.2-.9-.6-1.2c-.4-.3-.9-.5-1.6-.6-.7,0-1.2.3-1.7.6-.4.3-.6.7-.6,1.2s.2,1,.6,1.3.9.4,1.7.4Z"/>
                </g>
              </g>
            </g>
          </g>
        </g>
      </g>
    </g>
  </g>
</svg>